# xmcd
#
# Track frame offsets:
#	150
#	17736
#	29933
#	51114
#	67957
#	89275
#	110358
#	131680
#	153862
#	173452
#	190201
#	210528
#	225303
#
# Disc length: 3223 seconds
#
# Revision: 0
# Processed by: cddbd v1.5.2PL0 Copyright (c) Steve Scherf et al.
# Submitted via: dBpowerAMP V4.0
#
DISCID=a20c950d
DTITLE=Charlie Winston - Hobo (Bonus Track Version)
DYEAR=2009
DGENRE=Blues
TTITLE0=In Your Hands
TTITLE1=Kick the Bucket
TTITLE2=I Love Your Smile
TTITLE3=My Life As a Duck
TTITLE4=Boxes
TTITLE5=Calling Me
TTITLE6=Tongue Tied
TTITLE7=Soundtrack to Falling In Love
TTITLE8=Generation Spent
TTITLE9=Every Step
TTITLE10=My Name
TTITLE11=Allo Allo (Bonus Track)
TTITLE12=Like a Hobo
EXTD=
EXTT0=
EXTT1=
EXTT2=
EXTT3=
EXTT4=
EXTT5=
EXTT6=
EXTT7=
EXTT8=
EXTT9=
EXTT10=
EXTT11=
EXTT12=
PLAYORDER=
